<?xml version="1.0" encoding="UTF-8" standalone="no"?>
<svg
   xmlns:dc="http://purl.org/dc/elements/1.1/"
   xmlns:cc="http://creativecommons.org/ns#"
   xmlns:rdf="http://www.w3.org/1999/02/22-rdf-syntax-ns#"
   xmlns:svg="http://www.w3.org/2000/svg"
   xmlns="http://www.w3.org/2000/svg"
   xmlns:sodipodi="http://sodipodi.sourceforge.net/DTD/sodipodi-0.dtd"
   width="354.0000535236246"
   height="354.0000535236246"
   version="1.1"
   id="svg20"
   sodipodi:docname="logo.svg">
  <metadata
     id="metadata24">
    <rdf:RDF>
      <cc:Work
         rdf:about="">
        <dc:format>image/svg+xml</dc:format>
        <dc:type
           rdf:resource="http://purl.org/dc/dcmitype/StillImage" />
      </cc:Work>
    </rdf:RDF>
  </metadata>
  <sodipodi:namedview
     pagecolor="#ffffff"
     bordercolor="#666666"
     borderopacity="1"
     objecttolerance="10"
     gridtolerance="10"
     guidetolerance="10"
     id="namedview22"
     showgrid="false" />
  <defs
     id="defs5">
    <filter
       height="200%"
       width="200%"
       y="-50%"
       x="-50%"
       id="svg_1_blur">
      <feGaussianBlur
         stdDeviation="0"
         in="SourceGraphic"
         id="feGaussianBlur2" />
    </filter>
  </defs>
  <g
     id="g18">
    <title
       id="title15">Layer 1</title>
    <path
       d="m 1.9648308,177.36844 v 0 C 1.9648308,80.168014 80.762228,1.371231 177.96453,1.371231 v 0 c 46.67828,0 91.44845,18.543719 124.45175,51.54906 33.00812,33.00552 51.54928,77.770819 51.54928,124.448149 v 0 c 0,97.20335 -78.79474,176.00279 -176.00103,176.00279 v 0 c -97.202302,0 -175.9996992,-78.79944 -175.9996992,-176.00279 z m 87.9998202,0 v 0 c 0,48.60292 39.402309,87.99983 87.999879,87.99983 48.59783,0 88.00021,-39.39691 88.00021,-87.99983 0,-48.60018 -91.16739,50.23701 -88.00021,-87.999849 v 0 c -48.59757,0 -87.999879,39.399669 -87.999879,87.999849 z"
       id="svg_1"
       style="fill:#dc2222;fill-opacity:1;stroke:#333333;stroke-width:5;filter:url(#svg_1_blur)" />
  </g>
</svg>
